<?xml version="1.0" encoding="utf-8"?>
<!-- Generator: Adobe Illustrator 24.1.0, SVG Export Plug-In . SVG Version: 6.00 Build 0)  -->
<svg version="1.1" id="Layer_1" xmlns="http://www.w3.org/2000/svg" xmlns:xlink="http://www.w3.org/1999/xlink" x="0px" y="0px"
	 viewBox="0 0 41 35" style="enable-background:new 0 0 41 35;" xml:space="preserve">
<style type="text/css">
	.st0{fill:#595975;stroke:#F8F9FB;stroke-width:1.2;}
</style>
<g id="Group_4698" transform="translate(-1162.934 -2087.721)">
	<path id="Path_6998" class="st0" d="M1185.7,2103.4c0.1,0.4,0.4,0.6,0.8,0.7l14.9,3.4c0.1,0,0.2,0,0.2,0c0.5,0,1-0.4,1.1-0.9
		c1.4-6.1-0.8-12.5-5.7-16.4c-0.5-0.4-1.2-0.3-1.5,0.2c0,0,0,0,0,0l-9.6,12C1185.6,2102.6,1185.6,2103,1185.7,2103.4z
		 M1196.4,2092.7c2.9,2.7,4.5,6.4,4.5,10.4c0,0.7-0.1,1.4-0.2,2.1l-12.1-2.8L1196.4,2092.7z"/>
	<path id="Path_6999" class="st0" d="M1180.2,2121.6c7.7,0,14.3-5.3,16-12.8c0.1-0.6-0.2-1.2-0.8-1.3l-13.2-3l8.5-10.6
		c0.3-0.4,0.3-0.9,0.1-1.3v0c-0.1-0.1-0.1-0.2-0.2-0.2c-2.9-2.3-6.5-3.6-10.2-3.6c-9.1,0-16.4,7.3-16.4,16.4
		S1171.1,2121.6,1180.2,2121.6L1180.2,2121.6z M1180.2,2091c2.9,0,5.6,0.9,8,2.5l-8.9,11.1c-0.4,0.5-0.3,1.2,0.2,1.5
		c0.1,0.1,0.3,0.2,0.4,0.2l13.8,3.1c-2.3,7.5-10.3,11.7-17.8,9.4c-7.5-2.3-11.7-10.3-9.4-17.8
		C1168.4,2095.1,1173.9,2091,1180.2,2091z"/>
</g>
</svg>
