<?xml version="1.0" encoding="utf-8"?>
<!-- Generator: Adobe Illustrator 24.1.2, SVG Export Plug-In . SVG Version: 6.00 Build 0)  -->
<svg version="1.1" id="Layer_1" xmlns="http://www.w3.org/2000/svg" xmlns:xlink="http://www.w3.org/1999/xlink" x="0px" y="0px"
	 viewBox="0 0 37 37" style="enable-background:new 0 0 37 37;" xml:space="preserve">
<style type="text/css">
	.st0{fill:none;stroke:#595975;stroke-linecap:round;stroke-linejoin:round;}
</style>
<g id="Group_3653" transform="translate(-1773.067 -1576.636)">
	<path id="Path_5508" class="st0" d="M1778.3,1608.1h26.5c1.1,0,2.1,0.9,2.1,2.1l0,0c0,1.1-0.9,2.1-2.1,2.1h-26.5
		c-1.1,0-2.1-0.9-2.1-2.1l0,0C1776.3,1609,1777.2,1608.1,1778.3,1608.1z"/>
	<path id="Path_5509" class="st0" d="M1788,1598.7h-4.7l-6.7,10.3"/>
	<path id="Path_5510" class="st0" d="M1806.5,1609l-6.7-10.3h-4.7"/>
	<line id="Line_125" class="st0" x1="1791.6" y1="1593.4" x2="1791.6" y2="1602.2"/>
	<path id="Path_5511" class="st0" d="M1784.5,1581.6l7.1,3.5l7.1-3.5"/>
	<line id="Line_126" class="st0" x1="1791.6" y1="1585.1" x2="1791.6" y2="1594"/>
	<path id="Path_5512" class="st0" d="M1798.6,1581.6l-7.1-3.5l-7.1,3.5v8.8l7.1,3.5l7.1-3.5V1581.6z"/>
</g>
</svg>
