<?xml version="1.0" encoding="utf-8"?>
<!-- Generator: Adobe Illustrator 24.1.0, SVG Export Plug-In . SVG Version: 6.00 Build 0)  -->
<svg version="1.1" id="Layer_1" xmlns="http://www.w3.org/2000/svg" xmlns:xlink="http://www.w3.org/1999/xlink" x="0px" y="0px"
	 viewBox="0 0 41 35" style="enable-background:new 0 0 41 35;" xml:space="preserve">
<style type="text/css">
	.st0{fill:#595975;stroke:#F8F9FB;stroke-width:0.6;}
</style>
<path id="Union_7" class="st0" d="M14.8,34.2c-0.4-0.5-0.6-1.2-0.6-1.9c-0.7-0.1-1.3-0.4-1.7-1c-0.4-0.5-0.6-1.2-0.6-1.9
	c-0.7-0.1-1.3-0.4-1.8-1c-0.4-0.5-0.6-1.2-0.6-1.9c-0.7-0.1-1.3-0.4-1.8-1c-0.4-0.5-0.6-1.2-0.6-1.9c0.1-0.5,0.3-1,0.6-1.4
	C7.5,21.6,7,21.3,6.4,21l-0.2,0.4c-0.3,0.6-1,1-1.7,1c-0.3,0-0.7-0.1-0.9-0.2L1.5,21c-0.5-0.3-0.8-0.7-0.9-1.2s-0.1-1,0.2-1.5
	l6-10.7c0.5-0.9,1.7-1.3,2.7-0.7l2,1.1c0.5,0.3,0.8,0.7,0.9,1.2c0.1,0.5,0.1,1-0.1,1.4l2,0.6c0.9-0.8,2-1.2,3.2-1.1L21,9.7
	c0.8-0.1,1.6,0,2.4,0.3l2,0.7c0.2,0.1,0.4,0.2,0.6,0.2c0.2,0.1,0.4,0.2,0.6,0.2l0,0c0.3,0,0.6-0.1,1-0.2l1.2-0.3
	c-0.2-0.4-0.3-0.9-0.1-1.4c0-0.5,0.3-0.9,0.8-1.2l2.1-1.2c0.9-0.5,2.1-0.2,2.6,0.7l1.2,2.2c0.2,0.4,0.1,0.9-0.3,1.1
	c-0.4,0.2-0.9,0.1-1.1-0.3l0,0l-1.2-2.2c-0.1-0.2-0.3-0.2-0.5-0.1l-2.1,1.2c-0.1,0-0.1,0.1-0.2,0.2c0,0.1,0,0.2,0,0.3l5.5,9.8l0,0
	l0.5,0.9c0.1,0.2,0.3,0.2,0.5,0.1l2.1-1.2c0.1,0,0.1-0.1,0.2-0.2c0-0.1,0-0.2,0-0.3l-1.4-2.4c-0.2-0.4-0.1-0.9,0.3-1.1
	c0.4-0.2,0.9-0.1,1.1,0.3l0,0l1.4,2.4c0.3,0.5,0.3,1,0.2,1.5s-0.5,0.9-0.9,1.2l-2.1,1.2c-0.3,0.2-0.6,0.2-0.9,0.2
	c-0.7,0-1.4-0.4-1.7-1L34.6,21c-0.6,0.2-1.1,0.6-1.5,1.1c0.3,0.4,0.6,0.9,0.6,1.4c0.1,0.7-0.1,1.4-0.6,1.9c-0.4,0.5-1.1,0.9-1.8,1
	c0.1,0.7-0.1,1.4-0.6,1.9c-0.4,0.5-1.1,0.9-1.8,1c0.1,0.7-0.1,1.4-0.6,1.9c-0.4,0.5-1.1,0.9-1.8,1c-0.1,0-0.2,0-0.3,0
	c-0.3,0-0.6,0-0.9-0.1c-0.1,0.4-0.3,0.8-0.5,1.1c-0.5,0.6-1.3,1-2.1,1c-0.6,0-1.2-0.2-1.6-0.6l-0.9-0.8c-0.1,0.1-0.2,0.2-0.4,0.3
	l-1.6,1.3c-0.5,0.4-1,0.6-1.6,0.6C16,35.2,15.3,34.8,14.8,34.2z M17.8,30.4L17.8,30.4l-1.6,1.3l0,0c-0.2,0.2-0.4,0.4-0.4,0.7
	c0,0.3,0,0.6,0.2,0.8c0.4,0.5,1,0.5,1.5,0.2l1.6-1.3c0.2-0.2,0.4-0.4,0.4-0.7c0-0.3,0-0.6-0.2-0.8c-0.2-0.3-0.5-0.4-0.8-0.4
	C18.2,30.2,18,30.2,17.8,30.4L17.8,30.4z M18.5,21.7c0.4,0.5,0.6,1.2,0.6,1.9c0,0.5-0.2,0.9-0.5,1.2c0.4,0.2,0.7,0.4,0.9,0.7
	c0.4,0.5,0.6,1.2,0.6,1.9c0,0.4-0.2,0.9-0.5,1.2c0.4,0.2,0.7,0.4,0.9,0.7c0.4,0.5,0.6,1.2,0.6,1.9l1.3,1c0.5,0.4,1.1,0.3,1.5-0.2
	c0.4-0.5,0.3-1.1-0.2-1.5l-1.1-0.9c-0.1-0.1-0.2-0.2-0.2-0.3c-0.1-0.2-0.1-0.5,0-0.7l0.1-0.1c0.3-0.3,0.8-0.4,1.1-0.1l0,0l0.2,0.1
	l1,0.8l0,0l1.1,0.9c0.2,0.2,0.5,0.3,0.8,0.2c0.3,0,0.5-0.2,0.7-0.4c0.2-0.2,0.3-0.5,0.2-0.8c0-0.3-0.2-0.5-0.4-0.7L24.9,27
	c-0.3-0.3-0.4-0.8-0.1-1.1c0.3-0.3,0.8-0.4,1.1-0.1l0,0l2.3,1.8c0.5,0.4,1.1,0.3,1.5-0.2s0.3-1.1-0.2-1.5l-2.1-1.7
	C27,24,27,23.5,27.2,23.1c0.3-0.3,0.8-0.4,1.1-0.1l0,0l2.1,1.7l0,0c0.2,0.2,0.5,0.3,0.8,0.2c0.3,0,0.5-0.2,0.7-0.4
	c0.2-0.2,0.3-0.5,0.2-0.8c0-0.3-0.2-0.5-0.4-0.7l-2.5-2c-1-0.8-2.5-2-3.9-3l-0.6-0.5c-2-1.4-2.9-2.1-5.3-1.7
	c-2.8,0.6-4.9-0.5-5.5-2.8c0-0.1-0.1-0.3-0.1-0.4L11.5,12l-4.3,7.7c0.7,0.3,1.4,0.8,1.9,1.5l2.1-1.7c1.1-0.9,2.8-0.7,3.7,0.4l0,0
	c0.3,0.3,0.4,0.7,0.5,1.1c0.3-0.1,0.7-0.2,1-0.2C17.2,20.7,18,21.1,18.5,21.7L18.5,21.7z M13.5,29.5c0,0.3,0,0.6,0.2,0.8
	c0.2,0.2,0.4,0.4,0.7,0.4s0.6,0,0.8-0.2l2.9-2.4c0.2-0.2,0.4-0.4,0.4-0.7c0-0.3,0-0.6-0.2-0.8c-0.4-0.5-1-0.5-1.5-0.2l0,0l0,0
	l-2.9,2.3l0,0C13.6,29,13.5,29.2,13.5,29.5L13.5,29.5z M11.1,26.6c0,0.3,0,0.6,0.2,0.8c0.4,0.5,1,0.5,1.5,0.2l4.2-3.4
	c0.2-0.2,0.4-0.4,0.4-0.7c0-0.3,0-0.6-0.2-0.8c-0.4-0.5-1-0.5-1.5-0.2l0,0l-4.2,3.4l0,0C11.3,26.1,11.2,26.3,11.1,26.6L11.1,26.6z
	 M12.2,20.7l-3,2.3c-0.2,0.2-0.4,0.4-0.4,0.7c0,0.3,0,0.6,0.2,0.8c0.2,0.2,0.4,0.4,0.7,0.4s0.6,0,0.8-0.2l0,0l2.9-2.3l0,0
	c0.2-0.2,0.4-0.4,0.4-0.7c0-0.3,0-0.6-0.2-0.8c-0.2-0.3-0.5-0.4-0.8-0.4C12.6,20.4,12.3,20.5,12.2,20.7L12.2,20.7z M25.6,16.2
	l0.6,0.5c1.4,1,3,2.2,4,3.1l1.7,1.4c0.5-0.6,1.1-1.1,1.9-1.5L29.5,12L28,12.4c-0.8,0.4-1.7,0.4-2.5,0c-0.2-0.1-0.3-0.1-0.6-0.2
	l-2-0.7c-0.5-0.2-1.1-0.3-1.7-0.2l-3.5,0.3c-1.6,0.1-2.1,0.5-2.2,0.6c0,0-0.1,0.1,0,0.4c0.5,2,2.7,1.8,3.7,1.6
	c0.5-0.1,1.1-0.2,1.6-0.2C22.7,14.1,24,15,25.6,16.2L25.6,16.2z M8.1,8.4l-6,10.7C2,19.2,2,19.3,2,19.4s0.1,0.2,0.2,0.2l2.1,1.2
	c0.2,0.1,0.4,0,0.5-0.1l6-10.7c0.1-0.1,0.1-0.2,0-0.3c0-0.1-0.1-0.2-0.2-0.2l0,0l-2-1.3c-0.1,0-0.1-0.1-0.2-0.1
	C8.3,8.2,8.2,8.2,8.1,8.4z M25.3,6.9c-0.4-0.2-0.5-0.7-0.2-1.1l2.1-3.3c0.2-0.4,0.7-0.5,1.1-0.2l0,0c0.4,0.2,0.5,0.7,0.2,1.1
	l-2.1,3.3c-0.1,0.2-0.4,0.4-0.7,0.4C25.6,7.1,25.4,7,25.3,6.9z M14.6,6.7l-2.1-3.3c-0.2-0.4-0.1-0.9,0.2-1.1
	c0.4-0.2,0.8-0.1,1.1,0.2l0,0l2.1,3.3c0.2,0.4,0.1,0.9-0.2,1.1C15.6,7,15.4,7,15.3,7C15,7.1,14.8,6.9,14.6,6.7L14.6,6.7z M19.7,4.6
	v-4c0-0.4,0.3-0.8,0.8-0.8l0,0c0.4,0,0.8,0.4,0.8,0.8l0,0v4c0,0.4-0.3,0.8-0.8,0.8l0,0C20.1,5.4,19.7,5,19.7,4.6L19.7,4.6z"/>
</svg>
