<?xml version="1.0" encoding="utf-8"?>
<!-- Generator: Adobe Illustrator 24.1.2, SVG Export Plug-In . SVG Version: 6.00 Build 0)  -->
<svg version="1.1" id="web" xmlns="http://www.w3.org/2000/svg" xmlns:xlink="http://www.w3.org/1999/xlink" x="0px" y="0px"
	 viewBox="0 0 36 29" style="enable-background:new 0 0 36 29;" xml:space="preserve">
<style type="text/css">
	.st0{fill:#595975;}
</style>
<g id="Group_4829">
	<g id="Group_4828">
		<path id="Path_7080" class="st0" d="M30.1,0H5.9C4.6,0,3.5,1.1,3.5,2.4v24.2c0,1.3,1.1,2.4,2.4,2.4h24.2c1.3,0,2.4-1.1,2.4-2.4
			V2.4C32.5,1.1,31.4,0,30.1,0z M31.5,26.6c0,0.8-0.6,1.5-1.4,1.5c0,0,0,0,0,0H5.9c-0.8,0-1.4-0.6-1.4-1.5l0,0V4.8h27.1V26.6z
			 M31.5,3.9H4.5V2.4C4.5,1.6,5.1,1,5.9,1h24.2c0.8,0,1.5,0.6,1.5,1.4c0,0,0,0,0,0V3.9L31.5,3.9z"/>
		<path id="Path_7081" class="st0" d="M6.9,1.9H6.4c-0.3,0-0.5,0.2-0.5,0.5c0,0.3,0.2,0.5,0.5,0.5h0.5c0.3,0,0.5-0.2,0.5-0.5
			C7.4,2.1,7.2,1.9,6.9,1.9L6.9,1.9z"/>
		<path id="Path_7082" class="st0" d="M9,2C8.9,1.9,8.7,1.9,8.6,2C8.6,2,8.5,2,8.5,2.1c-0.2,0.2-0.2,0.5,0,0.7c0,0,0.1,0.1,0.2,0.1
			c0.1,0.1,0.3,0.1,0.4,0c0.1,0,0.1-0.1,0.2-0.1c0.2-0.2,0.2-0.5,0-0.7C9.1,2,9.1,2,9,2z"/>
		<path id="Path_7083" class="st0" d="M10.9,2c-0.2-0.1-0.4,0-0.5,0.1c0,0-0.1,0.1-0.1,0.2c-0.1,0.1-0.1,0.3,0,0.4
			c0,0.1,0.1,0.1,0.1,0.2c0.2,0.2,0.5,0.2,0.7,0c0,0,0.1-0.1,0.1-0.2c0-0.1,0-0.1,0-0.2C11.2,2.2,11.1,2,10.9,2z"/>
		<path id="Path_7085" class="st0" d="M10.9,23C10.9,23,11,23.1,10.9,23c3.7,3.9,9.8,4.1,13.7,0.5c0.1-0.1,0.3-0.3,0.4-0.4
			c0,0,0,0,0.1,0c0,0,0,0,0-0.1c3.4-3.7,3.4-9.3,0-13l0,0c0,0,0,0,0-0.1c0,0,0,0-0.1-0.1c-3.6-3.9-9.7-4.1-13.6-0.4
			c-0.1,0.1-0.3,0.3-0.4,0.4c0,0,0,0-0.1,0.1c0,0,0,0,0,0.1C7.5,13.6,7.5,19.3,10.9,23C10.9,23,10.9,23,10.9,23z M20.6,24.7
			c0.7-0.9,1.3-1.9,1.6-3l0,0c0.6,0.3,1.2,0.6,1.7,1.1C23,23.6,21.9,24.3,20.6,24.7L20.6,24.7z M24.7,22c-0.6-0.5-1.3-0.9-2.1-1.3
			c0.3-1.2,0.5-2.5,0.5-3.8h3.6C26.6,18.8,25.9,20.6,24.7,22L24.7,22z M26.7,15.9h-3.6c0-1.3-0.2-2.6-0.5-3.8
			c0.8-0.3,1.5-0.8,2.1-1.3C25.9,12.3,26.6,14.1,26.7,15.9L26.7,15.9z M24,10.1c-0.5,0.4-1.1,0.8-1.7,1.1c-0.3-1.1-0.9-2.1-1.6-3
			C21.9,8.5,23,9.2,24,10.1L24,10.1z M18.5,7.8c1.2,0.3,2.2,1.7,2.9,3.8c-0.9,0.3-1.9,0.5-2.9,0.6V7.8z M18.5,13.1
			c1.1,0,2.1-0.2,3.2-0.6c0.3,1.1,0.4,2.3,0.5,3.5h-3.6L18.5,13.1z M18.5,16.9h3.6c0,1.2-0.2,2.3-0.5,3.5c-1-0.3-2.1-0.5-3.2-0.6
			V16.9z M18.5,20.8c1,0,2,0.2,2.9,0.6c-0.7,2-1.7,3.4-2.9,3.8V20.8z M12,22.7c0.5-0.4,1.1-0.8,1.7-1l0,0c0.3,1.1,0.9,2.1,1.6,3
			C14.1,24.3,13,23.6,12,22.7L12,22.7z M17.5,25.1c-1.2-0.3-2.2-1.7-2.9-3.8c0.9-0.3,1.9-0.5,2.9-0.6V25.1z M17.5,19.8
			c-1.1,0-2.1,0.2-3.2,0.6c-0.3-1.1-0.4-2.3-0.5-3.5h3.6L17.5,19.8z M17.5,15.9h-3.6c0-1.2,0.2-2.3,0.5-3.5c1,0.3,2.1,0.5,3.2,0.6
			L17.5,15.9z M17.5,7.8v4.3c-1,0-2-0.2-2.9-0.6C15.3,9.5,16.3,8.1,17.5,7.8L17.5,7.8z M15.4,8.1c-0.7,0.9-1.3,1.9-1.6,3l0,0
			c-0.6-0.3-1.2-0.6-1.7-1.1C13,9.2,14.1,8.5,15.4,8.1L15.4,8.1z M11.3,10.8c0.6,0.5,1.3,0.9,2.1,1.3c-0.3,1.2-0.5,2.5-0.5,3.8H9.3
			C9.4,14.1,10.1,12.3,11.3,10.8L11.3,10.8z M12.9,16.9c0,1.3,0.2,2.6,0.5,3.8c-0.8,0.3-1.5,0.8-2.1,1.3c-1.2-1.4-1.9-3.2-2-5.1
			H12.9L12.9,16.9z"/>
	</g>
</g>
</svg>
