<?xml version="1.0" encoding="utf-8"?>
<!-- Generator: Adobe Illustrator 24.1.2, SVG Export Plug-In . SVG Version: 6.00 Build 0)  -->
<svg version="1.1" id="Layer_1" xmlns="http://www.w3.org/2000/svg" xmlns:xlink="http://www.w3.org/1999/xlink" x="0px" y="0px"
	 viewBox="0 0 36 29" style="enable-background:new 0 0 36 29;" xml:space="preserve">
<style type="text/css">
	.st0{fill:#595975;stroke:#FFFFFF;stroke-width:0.7;}
</style>
<g id="email_1_" transform="translate(0.35 -60.65)">
	<g id="Group_4830" transform="translate(0 61)">
		<path id="Path_7086" class="st0" d="M29.8,2.9H5.5C4,2.9,2.9,4,2.9,5.5v17.3c0,1.4,1.2,2.6,2.6,2.6h24.4c1.4,0,2.6-1.2,2.6-2.6
			V5.5C32.4,4,31.3,2.9,29.8,2.9z M29.5,4.6L17.7,16.4L5.8,4.6H29.5z M4.6,22.5V5.8l8.4,8.3L4.6,22.5z M5.8,23.7l8.4-8.4l2.9,2.9
			c0.3,0.3,0.9,0.3,1.2,0l2.9-2.8l8.3,8.3L5.8,23.7z M30.7,22.5l-8.3-8.3l8.3-8.3V22.5z"/>
	</g>
</g>
</svg>
