<?xml version="1.0" encoding="utf-8"?>
<!-- Generator: Adobe Illustrator 24.1.2, SVG Export Plug-In . SVG Version: 6.00 Build 0)  -->
<svg version="1.1" id="Layer_1" xmlns="http://www.w3.org/2000/svg" xmlns:xlink="http://www.w3.org/1999/xlink" x="0px" y="0px"
	 viewBox="0 0 36 29" style="enable-background:new 0 0 36 29;" xml:space="preserve">
<style type="text/css">
	.st0{fill:none;stroke:#595975;stroke-linecap:round;stroke-linejoin:round;}
</style>
<g id="Group_3659" transform="translate(0.5 0.5)">
	<line id="Line_130" class="st0" x1="1.2" y1="10.3" x2="17.5" y2="10.3"/>
	<line id="Line_131" class="st0" x1="1.2" y1="6.6" x2="13.1" y2="6.6"/>
	<path id="Path_5517" class="st0" d="M23.4,15.4v5.3H1.2V1.4h22.2v4.4"/>
	<line id="Line_132" class="st0" x1="5.7" y1="15.5" x2="10.1" y2="15.5"/>
	<path id="Path_5518" class="st0" d="M26.4,16.2c-3.3,0-5.9-2.7-5.9-5.9h-3c-2.5,0-4.4-2-4.4-4.4h10.3c5.7,0,10.4,4.6,10.4,10.3
		c0,5.7-4.6,10.4-10.3,10.4c-4.5-0.1-9.1-0.5-13.6-1.1c-1.7-0.2-3.1-1.4-3.6-3l-0.6-1.8"/>
</g>
</svg>
